<?xml version="1.0" encoding="UTF-8" standalone="no"?>
<!DOCTYPE svg PUBLIC "-//W3C//DTD SVG 1.1//EN" "http://www.w3.org/Graphics/SVG/1.1/DTD/svg11.dtd">
<svg width="100%" height="100%" viewBox="0 0 1024 1024" version="1.1" xmlns="http://www.w3.org/2000/svg" xmlns:xlink="http://www.w3.org/1999/xlink" xml:space="preserve" xmlns:serif="http://www.serif.com/" style="fill-rule:evenodd;clip-rule:evenodd;stroke-linejoin:round;stroke-miterlimit:2;">
    <g transform="matrix(0.56255,0.00112699,-0.00112699,0.56255,-62.8969,-65.205)">
        <rect x="0" y="0" width="2048" height="2048" style="fill-rule:nonzero;"/>
    </g>
    <g transform="matrix(0.56255,0.00112699,-0.00112699,0.56255,-62.8969,-65.205)">
        <path d="M1007.36,505.188L1551.61,448.918C1546.46,478.93 1541.17,508.915 1535.73,538.874C1531.73,561.738 1528.01,584.649 1524.56,607.602C1522.47,620.943 1520.82,634.662 1517.75,647.819L1306,670.102C1276.03,673.427 1246.04,676.578 1216.03,679.553C1200.98,681.105 1185.62,683.525 1170.52,684.209C1166.99,714.224 1162.01,744.199 1157.33,774.057C1154.35,793.098 1152.14,813.032 1147.46,831.725C1238.84,801.472 1306.12,795.11 1395.12,839.767C1461.29,872.967 1503.88,927.69 1526.76,997.356C1533.32,1017.32 1537.34,1037.14 1540.14,1057.96C1544.3,1075.1 1544.91,1094.56 1545.09,1112.19C1545.82,1183.3 1528.9,1253.34 1491.61,1314.35C1445.46,1389.83 1371.11,1440.47 1285.48,1460.77C1246.14,1470.09 1194.3,1475.01 1154.15,1470.1C1144.84,1469.56 1135.29,1468.57 1126.18,1466.61C1081.71,1459.52 1036.82,1445.4 999.649,1419.45C920.236,1364.02 902.398,1289.14 886.518,1200.3C917.834,1195.5 950.363,1194.1 981.962,1191.11C1020.68,1187.45 1059.89,1182.11 1098.79,1181.35C1098.86,1207.8 1097.6,1238.45 1115.03,1260.31C1130.45,1279.65 1155.06,1288.3 1178.92,1290.81C1214.74,1294.59 1251.08,1288.3 1279.49,1265.13C1312.17,1238.48 1323.88,1202.09 1328.02,1161.24C1332.98,1112.28 1327.3,1050.5 1295.13,1011.11C1250.1,978.254 1169.04,995.142 1116.46,996.288C1115.54,1004.14 1114.22,1012.16 1113.85,1020.05C1113.16,1025.42 1112.83,1030.9 1112.34,1036.3C1087.55,1039.62 1061.95,1040.63 1037,1042.82C1001.3,1045.96 965.571,1049.9 929.824,1052.28C935.498,1022.49 938.711,991.739 942.643,961.657L963.54,803.504L992.669,605.906C997.68,572.389 1003.56,538.86 1007.36,505.188Z" style="fill:url(#_Linear1);fill-rule:nonzero;"/>
    </g>
    <g transform="matrix(0.56255,0.00112699,-0.00112699,0.56255,-62.8969,-65.205)">
        <path d="M1506.97,480.835L1518.68,479.955L1493.93,621.544C1451.31,624.516 1408.8,629.827 1366.34,634.616L1253.74,646.662C1219.27,650.443 1183.81,656.551 1149.19,657.142L1126.29,802.416C1122.9,825.19 1118.54,848.356 1116.54,871.282C1136.09,863.723 1155.68,855.347 1175.65,848.988C1238.97,828.821 1304.25,825.647 1366.17,852.868C1430.79,881.275 1476.52,929.636 1502.12,995.315C1508.42,1011.47 1513.68,1028.96 1516.25,1046.13C1500.96,1056.8 1488.52,1063.13 1469.91,1065.76C1465.32,1065.82 1460.45,1064.7 1456.32,1062.69C1447.03,1058.14 1442.85,1049.64 1439.73,1040.32C1439.55,1023.84 1424.03,997.761 1414.59,984.625C1394.94,957.306 1368.6,937.114 1338.07,923.449C1293.23,903.381 1247.7,899.627 1199.38,906.422C1178.88,909.306 1158.62,913.513 1138.01,915.847C1115.78,918.367 1093.01,919.331 1070.86,915.626L1070.61,913.624C1081.93,896.694 1103.74,886.446 1122.14,879.525L1120.96,878.72C1118.59,879.321 1116.44,879.822 1114.28,881.022C1108.67,884.146 1102.19,885.847 1096.38,889.257C1091.53,892.106 1086.75,896.781 1081.5,898.593C1079.95,897.14 1079.98,897.242 1080.05,895.207C1080.28,889.372 1082.76,882.874 1083.57,876.941C1085.26,864.665 1095.65,785.113 1093.39,777.378C1094.59,757.164 1099.83,736.093 1103.19,716.049C1110.1,676.231 1116.23,636.281 1121.56,596.221C1139.65,594.049 1158.15,593.334 1176.33,591.888L1324.47,581.044L1426.55,572.074C1447.14,570.309 1467.78,568.091 1488.46,568.089C1491.49,551.656 1494.21,535.032 1497.97,518.752C1500.75,506.706 1506.66,493.069 1506.97,480.835Z" style="fill:url(#_Linear2);fill-rule:nonzero;"/>
    </g>
    <g transform="matrix(0.56255,0.00112699,-0.00112699,0.56255,-62.8969,-65.205)">
        <path d="M1338.76,1041C1348.08,1040.76 1356.14,1040.38 1365.08,1043.57C1378.25,1048.26 1396.21,1068.04 1408.9,1054.12C1414.34,1048.15 1418.78,1035.96 1427.84,1035.34C1431.6,1035.08 1436.9,1038.01 1439.73,1040.32C1442.85,1049.64 1447.03,1058.14 1456.32,1062.69C1460.45,1064.7 1465.32,1065.82 1469.91,1065.76C1470.12,1089.49 1470.65,1113.23 1468.66,1136.9C1463.21,1201.79 1439.77,1267.77 1393.7,1315C1341.25,1368.79 1268.78,1392.3 1194.91,1392.67C1131.74,1392.99 1064.49,1374.37 1018.78,1328.78C993.507,1303.58 982.538,1276.59 967.829,1245.33C953.072,1250.93 939.277,1258.62 924.486,1264.15L918.215,1236.71C944.112,1232.64 970.874,1231 996.993,1228.6C1022.63,1226.23 1048.5,1223.02 1074.21,1222.04C1074.94,1229.18 1076.41,1236.22 1078.6,1243.06C1086.1,1267.39 1101.46,1288.38 1124.28,1300.23C1159.64,1318.58 1212.68,1318.94 1249.96,1307.14C1286.55,1295.55 1314.38,1271.11 1331.95,1237.13C1361.32,1180.32 1357.54,1100.55 1338.76,1041Z" style="fill:rgb(244,42,113);fill-rule:nonzero;"/>
    </g>
    <g transform="matrix(0.56255,0.00112699,-0.00112699,0.56255,-62.8969,-65.205)">
        <path d="M1349.39,1261.14C1350.01,1261.04 1350.62,1260.94 1351.24,1260.86C1354.66,1260.39 1357.66,1260.9 1360.28,1263.36C1362.21,1265.18 1362.95,1267.76 1362.95,1270.34C1362.93,1283.76 1346.17,1300.96 1337.08,1309.69C1302.06,1343.31 1235.41,1359.98 1188.01,1358.74C1138.43,1357.45 1083.28,1343.81 1048.25,1306.63C1047.08,1305.14 1045.94,1303.64 1044.82,1302.11C1040.1,1295.57 1037.82,1287.54 1039.31,1279.5C1040.24,1274.44 1042.56,1269.31 1047.14,1266.57C1061.14,1258.16 1080.15,1279.95 1089.24,1288.22C1094.22,1292.77 1099.5,1296.98 1105.04,1300.83C1116.03,1308.38 1129.84,1314.05 1142.69,1317.54C1155.43,1320.99 1168.51,1322.11 1181.64,1322.77C1225.35,1324.94 1264.06,1316.46 1301.64,1293.69C1317.74,1283.94 1331.98,1270.89 1348.23,1261.77C1348.61,1261.56 1349,1261.35 1349.39,1261.14Z" style="fill:rgb(254,124,146);fill-rule:nonzero;"/>
    </g>
    <g transform="matrix(0.56255,0.00112699,-0.00112699,0.56255,-62.8969,-65.205)">
        <path d="M1392.39,1213.31C1407.26,1210.7 1421.45,1220.57 1424.19,1235.42C1426.93,1250.26 1417.19,1264.55 1402.37,1267.42C1387.36,1270.32 1372.86,1260.43 1370.09,1245.4C1367.31,1230.37 1377.33,1215.95 1392.39,1213.31Z" style="fill:rgb(159,14,74);fill-rule:nonzero;"/>
    </g>
    <g transform="matrix(0.56255,0.00112699,-0.00112699,0.56255,-62.8969,-65.205)">
        <path d="M1332.22,498.796C1390.41,492.218 1448.66,486.231 1506.97,480.835C1506.66,493.069 1500.75,506.706 1497.97,518.752C1494.21,535.032 1491.49,551.656 1488.46,568.089C1467.78,568.091 1447.14,570.309 1426.55,572.074L1324.47,581.044L1176.33,591.888C1158.15,593.334 1139.65,594.049 1121.56,596.221C1116.23,636.281 1110.1,676.231 1103.19,716.049C1099.83,736.093 1094.59,757.164 1093.39,777.378C1095.65,785.113 1085.26,864.665 1083.57,876.941C1082.76,882.874 1080.28,889.372 1080.05,895.207C1079.98,897.242 1079.95,897.14 1081.5,898.593C1086.75,896.781 1091.53,892.106 1096.38,889.257C1102.19,885.847 1108.67,884.146 1114.28,881.022C1116.44,879.822 1118.59,879.321 1120.96,878.72L1122.14,879.525C1103.74,886.446 1081.93,896.694 1070.61,913.624L1070.86,915.626L1066.11,914.426C1062.82,913.057 1059.56,911.628 1056.33,910.141C1043.44,904.161 1015.75,884.938 1007.38,874.03C1003.2,868.576 1001.03,862.92 998.674,856.55L998.397,855.899C989.809,828.558 1003.01,770.933 1006.9,741.469C1011.31,708.057 1016.38,673.168 1014.89,639.426C1018.12,619.908 1022.6,599.803 1024.12,580.099C1027.9,568.226 1028.37,552.926 1030.17,540.412C1031.08,538.872 1031.42,538.35 1033.19,537.748C1042.52,534.565 1076.32,532.145 1087.99,530.728C1130.33,525.416 1172.7,520.476 1215.12,515.908C1240.05,513.372 1264.92,510.358 1289.73,506.869C1303.88,504.884 1318.73,503.615 1332.22,498.796Z" style="fill:rgb(254,233,35);fill-rule:nonzero;"/>
    </g>
    <g transform="matrix(0.56255,0.00112699,-0.00112699,0.56255,-62.8969,-65.205)">
        <path d="M1093.39,777.378C1095.65,785.113 1085.26,864.665 1083.57,876.941C1082.76,882.874 1080.28,889.372 1080.05,895.207C1079.98,897.242 1079.95,897.14 1081.5,898.593C1086.75,896.781 1091.53,892.106 1096.38,889.257C1102.19,885.847 1108.67,884.146 1114.28,881.022C1116.44,879.822 1118.59,879.321 1120.96,878.72L1122.14,879.525C1103.74,886.446 1081.93,896.694 1070.61,913.624L1070.86,915.626L1066.11,914.426C1062.82,913.057 1059.56,911.628 1056.33,910.141C1043.44,904.161 1015.75,884.938 1007.38,874.03C1003.2,868.576 1001.03,862.92 998.674,856.55L998.397,855.899C1003.69,847.387 1000.74,833.49 1010.52,821.943C1015.53,816.036 1023.6,812.983 1031.21,812.636C1037.22,812.362 1043.5,814.503 1047.81,818.748C1051.71,822.582 1053.68,825.665 1053.75,831.165C1057.38,837.323 1059.03,843.209 1060.42,850.17C1059.28,854.721 1058.53,858.178 1055.48,861.907L1056.33,864.042C1064.38,868.366 1073.33,871.227 1081.92,874.296C1086.6,842.104 1088.26,809.509 1093.39,777.378Z" style="fill:rgb(252,203,16);fill-rule:nonzero;"/>
    </g>
    <g transform="matrix(0.56255,0.00112699,-0.00112699,0.56255,-62.8969,-65.205)">
        <path d="M1032.31,866.438C1024.33,859.582 1017.23,851.369 1016.44,840.365C1016.02,834.447 1017.69,828.135 1021.94,823.832C1024.81,820.92 1028.74,819.304 1032.82,819.357C1041.58,819.384 1047.9,825.481 1053.75,831.165C1057.38,837.323 1059.03,843.209 1060.42,850.17C1059.28,854.721 1058.53,858.178 1055.48,861.907C1043.25,866.273 1046.88,868.637 1032.31,866.438Z" style="fill:rgb(251,159,12);fill-rule:nonzero;"/>
    </g>
    <g transform="matrix(0.56255,0.00112699,-0.00112699,0.56255,-62.8969,-65.205)">
        <path d="M1045.74,704.013C1055.39,701.223 1065.5,706.722 1068.4,716.346C1071.3,725.97 1065.92,736.137 1056.33,739.149C1050.02,741.129 1043.14,739.567 1038.31,735.061C1033.48,730.555 1031.44,723.8 1032.98,717.375C1034.52,710.95 1039.39,705.846 1045.74,704.013Z" style="fill:rgb(248,140,6);fill-rule:nonzero;"/>
    </g>
    <g transform="matrix(0.56255,0.00112699,-0.00112699,0.56255,-62.8969,-65.205)">
        <path d="M1388.91,548.633C1387.07,545.18 1385.06,540.239 1386.04,536.242C1386.77,533.247 1388.45,531.133 1391.19,529.691C1395.67,527.329 1401.47,527.368 1406.14,529.134C1409.77,530.505 1413.37,533.218 1414.51,537.097C1415.49,540.412 1414.33,544.061 1412.45,546.826C1411.9,547.637 1411.56,547.897 1410.91,548.512C1408,550.847 1405.17,552.854 1401.36,553.322C1396.3,553.944 1392.76,551.568 1388.91,548.633Z" style="fill:rgb(239,106,6);fill-rule:nonzero;"/>
    </g>
    <g transform="matrix(0.56255,0.00112699,-0.00112699,0.56255,-62.8969,-65.205)">
        <path d="M1388.91,548.633C1394.46,546.278 1404.07,546.053 1409.77,548.018C1410.16,548.154 1410.53,548.347 1410.91,548.512C1408,550.847 1405.17,552.854 1401.36,553.322C1396.3,553.944 1392.76,551.568 1388.91,548.633Z" style="fill:rgb(223,74,0);fill-rule:nonzero;"/>
    </g>
    <g transform="matrix(0.56255,0.00112699,-0.00112699,0.56255,-62.8969,-65.205)">
        <path d="M1469.91,1065.76C1488.52,1063.13 1500.96,1056.8 1516.25,1046.13C1528.53,1147.47 1511.31,1250.74 1447.24,1332.64C1395.34,1398.98 1321.14,1436.54 1238.14,1446.57C1158.55,1456.18 1067.65,1442.7 1003.22,1392.12C971.95,1367.57 951.763,1335.53 936.305,1299.52C931.413,1288.12 926.599,1276.44 924.486,1264.15C939.277,1258.62 953.072,1250.93 967.829,1245.33C982.538,1276.59 993.507,1303.58 1018.78,1328.78C1064.49,1374.37 1131.74,1392.99 1194.91,1392.67C1268.78,1392.3 1341.25,1368.79 1393.7,1315C1439.77,1267.77 1463.21,1201.79 1468.66,1136.9C1470.65,1113.23 1470.12,1089.49 1469.91,1065.76Z" style="fill:rgb(159,14,74);fill-rule:nonzero;"/>
    </g>
    <g transform="matrix(0.56255,0.00112699,-0.00112699,0.56255,-62.8969,-65.205)">
        <path d="M966.953,887.311C976.76,880.114 985.767,858.061 998.674,856.55C1001.03,862.92 1003.2,868.576 1007.38,874.03C1015.75,884.938 1043.44,904.161 1056.33,910.141C1059.56,911.628 1062.82,913.057 1066.11,914.426L1070.86,915.626C1093.01,919.331 1115.78,918.367 1138.01,915.847C1158.62,913.513 1178.88,909.306 1199.38,906.422C1247.7,899.627 1293.23,903.381 1338.07,923.449C1368.6,937.114 1394.94,957.306 1414.59,984.625C1424.03,997.761 1439.55,1023.84 1439.73,1040.32C1436.9,1038.01 1431.6,1035.08 1427.84,1035.34C1418.78,1035.96 1414.34,1048.15 1408.9,1054.12C1396.21,1068.04 1378.25,1048.26 1365.08,1043.57C1356.14,1040.38 1348.08,1040.76 1338.76,1041C1331.29,1023.43 1321.12,1007.01 1306.58,994.428C1255.67,950.361 1159.02,964.023 1096.41,968.506C1093.13,986.278 1092,1004.37 1088.69,1022.15C1060.98,1024.99 1033.25,1027.57 1005.49,1029.86C986.208,1031.5 966.567,1032.46 947.465,1035.56C949.414,1010.38 954.018,985.035 957.33,959.982C960.403,936.731 962.162,912.528 966.906,889.581L966.953,887.311Z" style="fill:rgb(251,159,12);fill-rule:nonzero;"/>
    </g>
    <g transform="matrix(0.56255,0.00112699,-0.00112699,0.56255,-62.8969,-65.205)">
        <path d="M966.953,887.311C976.76,880.114 985.767,858.061 998.674,856.55C1001.03,862.92 1003.2,868.576 1007.38,874.03C1015.75,884.938 1043.44,904.161 1056.33,910.141C1059.56,911.628 1062.82,913.057 1066.11,914.426C1065.71,914.601 1065.32,914.789 1064.91,914.951C1059.79,917.008 1044.42,915.477 1039.31,913.379C1039.68,911.232 1040.37,909.261 1041.05,907.197C1040.82,906.408 1040.79,906.047 1040.2,905.331C1031.18,894.372 1003.89,885.381 990.146,886.467C983.274,887.011 975.234,890.289 968.642,889.764C968.062,889.717 967.485,889.642 966.906,889.581L966.953,887.311Z" style="fill:rgb(239,106,6);fill-rule:nonzero;"/>
    </g>
    <g transform="matrix(0.56255,0.00112699,-0.00112699,0.56255,-62.8969,-65.205)">
        <path d="M1007.36,505.188L1551.61,448.918C1546.46,478.93 1541.17,508.915 1535.73,538.874C1529.85,539.125 1524.62,540.236 1518.93,541.616C1523.49,516.829 1526.64,491.797 1531.12,466.987C1482.05,470.576 1432.99,476.743 1384.03,481.766L1112.42,509.028C1080.78,512.09 1049.19,517.18 1017.49,519.273C1015.78,534.691 1013.85,550.084 1011.69,565.445C1010.74,572.681 1009.1,580.601 1009.12,587.867C1010.69,592.448 1008.81,597.483 1009.43,602.301C1010.07,602.154 1010.72,602.018 1011.36,601.859C1022.15,599.176 1018.39,588.394 1023.31,581.212C1023.57,580.833 1023.85,580.47 1024.12,580.099C1022.6,599.803 1018.12,619.908 1014.89,639.426C1016.38,673.168 1011.31,708.057 1006.9,741.469C1003.01,770.933 989.809,828.558 998.397,855.899L998.674,856.55C985.767,858.061 976.76,880.114 966.953,887.311L966.906,889.581C962.162,912.528 960.403,936.731 957.33,959.982C954.018,985.035 949.414,1010.38 947.465,1035.56C966.567,1032.46 986.208,1031.5 1005.49,1029.86C1033.25,1027.57 1060.98,1024.99 1088.69,1022.15C1092.69,1021.89 1096.7,1021.27 1100.68,1020.8C1105.04,1020.54 1109.49,1020.06 1113.85,1020.05C1113.16,1025.42 1112.83,1030.9 1112.34,1036.3C1087.55,1039.62 1061.95,1040.63 1037,1042.82C1001.3,1045.96 965.571,1049.9 929.824,1052.28C935.498,1022.49 938.711,991.739 942.643,961.657L963.54,803.504L992.669,605.906C997.68,572.389 1003.56,538.86 1007.36,505.188Z" style="fill:rgb(253,253,250);fill-rule:nonzero;"/>
    </g>
    <g transform="matrix(0.56255,0.00112699,-0.00112699,0.56255,-62.8969,-65.205)">
        <path d="M1012.04,651.079C1012.71,647.174 1013.91,643.27 1014.89,639.426C1016.38,673.168 1011.31,708.057 1006.9,741.469C1003.01,770.933 989.809,828.558 998.397,855.899L998.674,856.55C985.767,858.061 976.76,880.114 966.953,887.311C968.725,865.429 972.757,843.298 975.594,821.492C979.08,794.701 981.65,767.789 986.514,741.197C987.362,735.406 988.059,729.609 989.667,723.97C990.25,716.462 991.442,707.428 993.665,700.225C994.978,685.91 997.533,671.495 999.524,657.253L1003.63,658.684C1007.81,657.497 1007.8,653.286 1012.04,651.079Z" style="fill:rgb(251,159,12);fill-rule:nonzero;"/>
    </g>
    <g transform="matrix(0.56255,0.00112699,-0.00112699,0.56255,-62.8969,-65.205)">
        <path d="M999.524,657.253L1003.63,658.684C1007.81,657.497 1007.8,653.286 1012.04,651.079L1010.96,656.496C1011.12,672.977 1008.53,685.514 1003.41,701.192C1001.72,706.369 999.267,711.977 998.147,717.246C995.861,720.025 993.973,722.584 990.786,724.345L989.667,723.97C990.25,716.462 991.442,707.428 993.665,700.225C994.978,685.91 997.533,671.495 999.524,657.253Z" style="fill:rgb(239,106,6);fill-rule:nonzero;"/>
    </g>
    <g transform="matrix(0.56255,0.00112699,-0.00112699,0.56255,-62.8969,-65.205)">
        <path d="M999.524,657.253L1003.63,658.684C1007.81,657.497 1007.8,653.286 1012.04,651.079L1010.96,656.496C1007.8,668.985 1000.82,689.606 993.665,700.225C994.978,685.91 997.533,671.495 999.524,657.253Z" style="fill:url(#_Linear3);fill-rule:nonzero;"/>
    </g>
    <g transform="matrix(0.56255,0.00112699,-0.00112699,0.56255,-62.8969,-65.205)">
        <path d="M989.667,723.97L990.786,724.345C993.973,722.584 995.861,720.025 998.147,717.246L997.202,731.531C994.097,736.028 991.606,738.994 986.514,741.197C987.362,735.406 988.059,729.609 989.667,723.97Z" style="fill:rgb(248,140,6);fill-rule:nonzero;"/>
    </g>
    <g transform="matrix(0.56255,0.00112699,-0.00112699,0.56255,-62.8969,-65.205)">
        <path d="M1024.12,580.099C1022.6,599.803 1018.12,619.908 1014.89,639.426C1013.91,643.27 1012.71,647.174 1012.04,651.079C1007.8,653.286 1007.81,657.497 1003.63,658.684L999.524,657.253C1002.86,634.33 1004.42,610.486 1009.12,587.867C1010.69,592.448 1008.81,597.483 1009.43,602.301C1010.07,602.154 1010.72,602.018 1011.36,601.859C1022.15,599.176 1018.39,588.394 1023.31,581.212C1023.57,580.833 1023.85,580.47 1024.12,580.099Z" style="fill:rgb(106,26,39);fill-rule:nonzero;"/>
    </g>
    <g transform="matrix(0.56255,0.00112699,-0.00112699,0.56255,-62.8969,-65.205)">
        <path d="M1295.13,1011.11C1297.26,1008.69 1301.33,1007.41 1304.28,1006.1C1338.84,1045.44 1346.72,1098.58 1343.46,1149.5C1340.6,1194.17 1328.85,1241.11 1294.1,1271.72C1264.4,1297.9 1225.9,1309.02 1186.69,1306.44C1154.42,1304.32 1125.06,1296.05 1103.35,1270.82C1084.54,1248.97 1083.3,1223.46 1083,1195.75L967.797,1207.05C947.316,1209.04 925.102,1209.75 905.053,1214.11C917.582,1288.97 943.165,1360.76 1007.8,1406.53C1042.18,1430.88 1089.4,1448.73 1131.59,1453.87C1131.02,1458.08 1130.68,1461.68 1128.37,1465.38L1126.18,1466.61C1081.71,1459.52 1036.82,1445.4 999.649,1419.45C920.236,1364.02 902.398,1289.14 886.518,1200.3C917.834,1195.5 950.363,1194.1 981.962,1191.11C1020.68,1187.45 1059.89,1182.11 1098.79,1181.35C1098.86,1207.8 1097.6,1238.45 1115.03,1260.31C1130.45,1279.65 1155.06,1288.3 1178.92,1290.81C1214.74,1294.59 1251.08,1288.3 1279.49,1265.13C1312.17,1238.48 1323.88,1202.09 1328.02,1161.24C1332.98,1112.28 1327.3,1050.5 1295.13,1011.11Z" style="fill:rgb(253,253,250);fill-rule:nonzero;"/>
    </g>
    <g transform="matrix(0.56255,0.00112699,-0.00112699,0.56255,-62.8969,-65.205)">
        <path d="M1535.73,538.874C1531.73,561.738 1528.01,584.649 1524.56,607.602C1522.47,620.943 1520.82,634.662 1517.75,647.819L1306,670.102C1276.03,673.427 1246.04,676.578 1216.03,679.553C1200.98,681.105 1185.62,683.525 1170.52,684.209C1166.99,714.224 1162.01,744.199 1157.33,774.057C1154.35,793.098 1152.14,813.032 1147.46,831.725C1142.53,833.322 1137.36,835.472 1132.28,836.375C1134.33,813.968 1138.88,791.239 1142.28,768.962C1147.38,735.568 1151.85,701.895 1158.58,668.785C1178.5,665.784 1198.7,664.096 1218.73,661.926L1311.37,651.874C1375.41,645.208 1439.26,637.648 1503.38,631.612C1508.7,601.637 1513.41,571.565 1518.93,541.616C1524.62,540.236 1529.85,539.125 1535.73,538.874Z" style="fill:rgb(29,205,227);fill-rule:nonzero;"/>
    </g>
    <g transform="matrix(0.56255,0.00112699,-0.00112699,0.56255,-62.8969,-65.205)">
        <path d="M1522.16,1030.79C1533.39,1037.65 1532.33,1049.29 1540.14,1057.96C1544.3,1075.1 1544.91,1094.56 1545.09,1112.19C1545.82,1183.3 1528.9,1253.34 1491.61,1314.35C1445.46,1389.83 1371.11,1440.47 1285.48,1460.77C1246.14,1470.09 1194.3,1475.01 1154.15,1470.1C1159.02,1458.38 1175.04,1467.19 1183.07,1458C1210.73,1458.37 1238.35,1456 1265.54,1450.92C1350.51,1434.45 1421.68,1389.72 1470.13,1317.56C1525.69,1234.81 1541.25,1127.82 1522.16,1030.79Z" style="fill:url(#_Linear4);fill-rule:nonzero;"/>
    </g>
    <g transform="matrix(0.56255,0.00112699,-0.00112699,0.56255,-62.8969,-65.205)">
        <path d="M1147.46,831.725C1238.84,801.472 1306.12,795.11 1395.12,839.767C1461.29,872.967 1503.88,927.69 1526.76,997.356C1533.32,1017.32 1537.34,1037.14 1540.14,1057.96C1532.33,1049.29 1533.39,1037.65 1522.16,1030.79C1517.97,1015.84 1513.73,1000.92 1508.25,986.391C1483.85,921.698 1437.11,873.424 1374.17,845.183C1286.73,805.955 1214.35,821.95 1129.72,854.177L1132.28,836.375C1137.36,835.472 1142.53,833.322 1147.46,831.725Z" style="fill:rgb(253,253,250);fill-rule:nonzero;"/>
    </g>
    <g transform="matrix(0.56255,0.00112699,-0.00112699,0.56255,-62.8969,-65.205)">
        <path d="M1105.37,979.179C1134.63,976.911 1163.84,974.58 1193.19,974.274C1231.07,973.878 1275.83,978.225 1304.28,1006.1C1301.33,1007.41 1297.26,1008.69 1295.13,1011.11C1250.1,978.254 1169.04,995.142 1116.46,996.288C1115.54,1004.14 1114.22,1012.16 1113.85,1020.05C1109.49,1020.06 1105.04,1020.54 1100.68,1020.8C1100.99,1007.03 1103.38,992.813 1105.37,979.179Z" style="fill:rgb(29,205,227);fill-rule:nonzero;"/>
    </g>
    <g transform="matrix(0.56255,0.00112699,-0.00112699,0.56255,-62.8969,-65.205)">
        <path d="M914.988,1223.39C932.204,1219.28 951.744,1218.56 969.387,1216.71C1004.02,1213.08 1038.77,1209.46 1073.49,1206.83L1074.21,1222.04C1048.5,1223.02 1022.63,1226.23 996.993,1228.6C970.874,1231 944.112,1232.64 918.215,1236.71C916.88,1232.38 916.032,1227.8 914.988,1223.39Z" style="fill:rgb(253,253,250);fill-rule:nonzero;"/>
    </g>
    <g transform="matrix(0.56255,0.00112699,-0.00112699,0.56255,-62.8969,-65.205)">
        <path d="M1030.08,529.338C1061.19,526.575 1092.23,522.402 1123.29,519.099L1243.71,507.072C1266.02,504.706 1312.1,497.291 1332.22,498.796C1318.73,503.615 1303.88,504.884 1289.73,506.869C1264.92,510.358 1240.05,513.372 1215.12,515.908C1172.7,520.476 1130.33,525.416 1087.99,530.728C1076.32,532.145 1042.52,534.565 1033.19,537.748C1031.42,538.35 1031.08,538.872 1030.17,540.412L1030.08,529.338Z" style="fill:rgb(239,106,6);fill-rule:nonzero;"/>
    </g>
    <g transform="matrix(0.56255,0.00112699,-0.00112699,0.56255,-62.8969,-65.205)">
        <path d="M1131.59,1453.87C1148.54,1456.39 1165.92,1458.1 1183.07,1458C1175.04,1467.19 1159.02,1458.38 1154.15,1470.1C1144.84,1469.56 1135.29,1468.57 1126.18,1466.61L1128.37,1465.38C1130.68,1461.68 1131.02,1458.08 1131.59,1453.87Z" style="fill:rgb(57,250,250);fill-rule:nonzero;"/>
    </g>
    <g transform="matrix(0.56255,0.00112699,-0.00112699,0.56255,-62.8969,-65.205)">
        <path d="M739.962,537.913C805.501,527.798 872.257,524.727 937.897,515.026L935.722,530.637C933.727,555.025 930.07,579.381 926.937,603.646L912.119,717.998L880.91,970.592C871.76,1042.54 864.202,1114.87 853.544,1186.59C848.257,1222.17 844.063,1259.09 832.623,1293.34C816.526,1341.52 789.014,1382.15 750.307,1414.94C695.001,1461.81 615.594,1487.73 542.839,1481.22C541.958,1481.14 541.079,1481.05 540.2,1480.95C535.134,1481.03 530.173,1480.89 525.131,1480.34C467.032,1474.02 410.495,1448.37 373.568,1402.05C330.642,1348.21 324.535,1286.27 324.934,1220.24C325.049,1201.11 324.669,1181.4 326.875,1162.4C343.347,1158.1 373.052,1157.48 391.074,1155.75L528.952,1142.24C528.926,1183.97 514.779,1239.26 538.692,1276.01C546.18,1287.52 555.872,1293.55 569.099,1296.24C581.894,1298.84 596.213,1298.65 607.284,1290.87C620.63,1281.49 626.827,1259.75 630.627,1244.79C638.482,1213.85 642.807,1182.09 647.783,1150.61C656.394,1094.7 664.61,1038.72 672.432,982.695C692.919,834.134 715.43,685.86 739.962,537.913Z" style="fill:rgb(253,253,250);fill-rule:nonzero;"/>
    </g>
    <g transform="matrix(0.56255,0.00112699,-0.00112699,0.56255,-62.8969,-65.205)">
        <path d="M921.341,539.924L921.745,539.871L925.828,542.188C924.331,552.712 923.581,564.331 921.087,574.628C919.334,592.136 910.042,683.178 902.979,691.998C898.297,711.697 896.24,732.744 893.423,752.823L879.645,851.65C877.7,865.826 877.748,885.444 873.474,898.701L872.523,896.561C870.621,897.061 870.736,896.638 869.602,898.514C863.832,908.054 856.448,945.648 853.776,958.671C843.855,1007.01 833.28,1055.25 825.382,1103.97C821.924,1126.04 818.617,1148.13 815.46,1170.24C813.307,1184.85 811.74,1201 807.079,1215.01C805.998,1218.26 805.011,1219.13 801.872,1220.32C784.418,1218.07 772.975,1179.85 755.238,1192.66C750.341,1196.19 748.245,1202.86 747.492,1208.57C746.649,1214.97 747.719,1220.3 750.524,1226.08C753.78,1228.62 757.363,1231.06 760.288,1233.97C757.694,1247.44 750.632,1258.78 744.632,1270.95C740.177,1279.99 737.405,1289.77 732.685,1298.67C719.765,1323.05 687.824,1354.24 664.924,1369.74C627.537,1395.05 580.697,1409.07 535.581,1400.39C504.041,1394.33 473.511,1375.08 455.747,1348.17C439.673,1323.82 432.731,1293.41 432.704,1264.5C406.81,1269.47 378.613,1272.36 352.271,1273.2C347.965,1245.31 350.552,1214.53 350.954,1186.34C375.666,1182.52 401.173,1181.38 426.082,1179.09C451.298,1176.78 476.912,1173.1 502.206,1172.78C500.437,1210.8 492.211,1254.48 508.737,1290.32C515.792,1305.62 527.683,1317.63 543.65,1323.42C563.183,1330.51 589.199,1329.87 608.034,1320.88C626.114,1312.25 637.138,1297.39 644.501,1279.15C658.612,1244.2 662.18,1204.54 667.718,1167.52L680.636,1085.09C700.844,950.869 718.45,816.293 740.549,682.369L754.906,600.022C757.102,587.173 757.913,571.498 762.256,559.369C764.671,557.78 766.578,558.121 769.401,557.97C816.875,552.085 864.476,547.659 911.927,541.615L921.341,539.924Z" style="fill:rgb(20,171,187);fill-rule:nonzero;"/>
    </g>
    <g transform="matrix(0.56255,0.00112699,-0.00112699,0.56255,-62.8969,-65.205)">
        <path d="M921.341,539.924L921.745,539.871L925.828,542.188C924.331,552.712 923.581,564.331 921.087,574.628C919.334,592.136 910.042,683.178 902.979,691.998C905.973,676.709 906.367,660.053 907.868,644.5C910.212,620.258 913.144,596.076 916.661,571.976C918.46,561.329 920.02,550.642 921.341,539.924Z" style="fill:rgb(57,250,250);fill-rule:nonzero;"/>
    </g>
    <g transform="matrix(0.56255,0.00112699,-0.00112699,0.56255,-62.8969,-65.205)">
        <path d="M921.341,539.924L921.745,539.871L925.828,542.188C924.331,552.712 923.581,564.331 921.087,574.628L920.184,573.893C919.85,568.968 921.339,564.269 920.867,559.167C918.779,564.12 918.528,570.993 917.774,576.375L917.3,576.321L916.661,571.976C918.46,561.329 920.02,550.642 921.341,539.924Z" style="fill:rgb(224,255,255);fill-rule:nonzero;"/>
    </g>
    <g transform="matrix(0.56255,0.00112699,-0.00112699,0.56255,-62.8969,-65.205)">
        <path d="M769.256,562.148C783.614,560.584 905.671,546.81 909.52,548.245L910.621,552.027L910.008,553.704C905.4,566.686 903.291,581.802 900.152,595.286C893.918,622.067 840.944,865.076 840.518,865.519C842.723,826.549 847.452,787.898 851.511,749.102C854.468,719.058 857.183,688.992 859.655,658.905C861.802,633.768 865.725,607.128 865.058,581.941C861.189,596.361 858.611,611.251 855.525,625.862L836.074,721.504L777.023,1025.06C767.142,1076.79 758.847,1129.28 747.072,1180.6C745.994,1129.48 752.974,1078.2 756.867,1027.29L781.66,712.166C783.772,682.42 786.313,652.672 788.127,622.911C788.675,613.931 790.642,601.949 789.461,593.21L788.72,594.136L789.736,593.389L789.67,593.289L788.353,595.188L790.299,595.435L790.469,596.827L788.301,597.175C784.422,605.412 780.37,637.366 778.244,649.195L747.172,828.338C743.415,849.586 741.097,878.62 734,898.415C734.553,872.549 739.806,840.168 742.207,813.572C745.737,774.476 758.294,582.474 769.256,562.148Z" style="fill:rgb(57,250,250);fill-rule:nonzero;"/>
    </g>
    <g transform="matrix(0.56255,0.00112699,-0.00112699,0.56255,-62.8969,-65.205)">
        <path d="M709.644,1286.14C714.729,1284.42 720.257,1287.07 722.092,1292.12C723.926,1297.16 721.396,1302.75 716.394,1304.7C713.056,1306 709.276,1305.39 706.515,1303.11C703.755,1300.82 702.446,1297.22 703.096,1293.7C703.745,1290.18 706.251,1287.28 709.644,1286.14Z" style="fill:rgb(7,114,158);fill-rule:nonzero;"/>
    </g>
    <g transform="matrix(0.56255,0.00112699,-0.00112699,0.56255,-62.8969,-65.205)">
        <path d="M677.142,1296.08C682.046,1294.67 687.172,1297.47 688.638,1302.35C690.104,1307.24 687.365,1312.4 682.494,1313.92C679.293,1314.92 675.802,1314.13 673.353,1311.83C670.904,1309.54 669.875,1306.11 670.659,1302.85C671.443,1299.59 673.919,1297.01 677.142,1296.08Z" style="fill:rgb(12,57,132);fill-rule:nonzero;"/>
    </g>
    <g transform="matrix(0.56255,0.00112699,-0.00112699,0.56255,-62.8969,-65.205)">
        <path d="M750.524,1226.08C747.719,1220.3 746.649,1214.97 747.492,1208.57C748.245,1202.86 750.341,1196.19 755.238,1192.66C772.975,1179.85 784.418,1218.07 801.872,1220.32C805.011,1219.13 805.998,1218.26 807.079,1215.01C811.74,1201 813.307,1184.85 815.46,1170.24C818.617,1148.13 821.924,1126.04 825.382,1103.97C833.28,1055.25 843.855,1007.01 853.776,958.671C856.448,945.648 863.832,908.054 869.602,898.514C870.736,896.638 870.621,897.061 872.523,896.561L873.474,898.701C870.446,925.553 867.254,952.386 863.898,979.198C858.805,1017.04 852.76,1054.74 847.902,1092.63C844.368,1120.19 840.788,1176.84 832.611,1200.01L829.846,1198.57C827.42,1199.88 826.832,1201.18 825.997,1203.82C821.039,1219.48 820.971,1237 816.993,1253.08C799.262,1324.76 763.986,1383.03 698.438,1420.46C637.94,1455 557.558,1466.15 490.289,1447.59C443.12,1434.57 404.767,1405.18 380.547,1362.54C364.949,1335.07 356.457,1304.36 352.271,1273.2C378.613,1272.36 406.81,1269.47 432.704,1264.5C432.731,1293.41 439.673,1323.82 455.747,1348.17C473.511,1375.08 504.041,1394.33 535.581,1400.39C580.697,1409.07 627.537,1395.05 664.924,1369.74C687.824,1354.24 719.765,1323.05 732.685,1298.67C737.405,1289.77 740.177,1279.99 744.632,1270.95C750.632,1258.78 757.694,1247.44 760.288,1233.97C757.363,1231.06 753.78,1228.62 750.524,1226.08Z" style="fill:rgb(7,114,158);fill-rule:nonzero;"/>
    </g>
    <g transform="matrix(0.56255,0.00112699,-0.00112699,0.56255,-62.8969,-65.205)">
        <path d="M753.262,550.768C791.338,545.952 829.485,541.71 867.689,538.044C885.296,536.248 903.79,533.062 921.464,533.103L922.383,534.036L921.745,539.871L921.341,539.924L911.927,541.615C864.476,547.659 816.875,552.085 769.401,557.97C766.578,558.121 764.671,557.78 762.256,559.369C757.913,571.498 757.102,587.173 754.906,600.022L740.549,682.369C718.45,816.293 700.844,950.869 680.636,1085.09L667.718,1167.52C662.18,1204.54 658.612,1244.2 644.501,1279.15C637.138,1297.39 626.114,1312.25 608.034,1320.88C589.199,1329.87 563.183,1330.51 543.65,1323.42C527.683,1317.63 515.792,1305.62 508.737,1290.32C492.211,1254.48 500.437,1210.8 502.206,1172.78C476.912,1173.1 451.298,1176.78 426.082,1179.09C401.173,1181.38 375.666,1182.52 350.954,1186.34C350.552,1214.53 347.965,1245.31 352.271,1273.2C356.457,1304.36 364.949,1335.07 380.547,1362.54C404.767,1405.18 443.12,1434.57 490.289,1447.59C557.558,1466.15 637.94,1455 698.438,1420.46C763.986,1383.03 799.262,1324.76 816.993,1253.08C820.971,1237 821.039,1219.48 825.997,1203.82C826.832,1201.18 827.42,1199.88 829.846,1198.57L832.611,1200.01C832.514,1200.36 832.413,1200.7 832.32,1201.04C826.905,1221.16 826.301,1243.02 821.529,1263.51C805.276,1333.28 763.95,1393.06 701.936,1429.47C643.105,1464.02 559.272,1476.15 492.875,1458.74C481.865,1455.85 471.036,1450.57 459.953,1448.5C438.064,1438.92 418.312,1425.07 401.857,1407.75C336.653,1340.08 339.547,1262.78 341.029,1176.25C363.999,1175.37 387.24,1172.45 410.126,1170.23C444.118,1166.95 478.126,1163.85 512.149,1160.91C508.221,1200.14 498.988,1263.35 524.932,1296.18C534.678,1308.51 548.358,1315.3 563.807,1317.13C582.958,1319.4 602.5,1315.64 617.753,1303.38C634.445,1289.97 641.855,1267.66 646.999,1247.6C658.13,1204.2 662.449,1157.06 669.043,1112.62C681.086,1033.37 692.634,954.05 703.686,874.658C712.218,815.359 721.135,756.116 730.437,696.933C738.391,648.419 747.564,599.586 753.262,550.768Z" style="fill:rgb(18,1,62);fill-rule:nonzero;"/>
    </g>
    <g transform="matrix(0.56255,0.00112699,-0.00112699,0.56255,-62.8969,-65.205)">
        <path d="M935.722,530.637C933.727,555.025 930.07,579.381 926.937,603.646L912.119,717.998L880.91,970.592C871.76,1042.54 864.202,1114.87 853.544,1186.59C848.257,1222.17 844.063,1259.09 832.623,1293.34C816.526,1341.52 789.014,1382.15 750.307,1414.94C695.001,1461.81 615.594,1487.73 542.839,1481.22C541.958,1481.14 541.079,1481.05 540.2,1480.95C533.204,1476.14 520.525,1474.55 512.237,1472.05C494.854,1466.8 474.769,1459.12 459.953,1448.5C471.036,1450.57 481.865,1455.85 492.875,1458.74C559.272,1476.15 643.105,1464.02 701.936,1429.47C763.95,1393.06 805.276,1333.28 821.529,1263.51C826.301,1243.02 826.905,1221.16 832.32,1201.04C832.413,1200.7 832.514,1200.36 832.611,1200.01C840.788,1176.84 844.368,1120.19 847.902,1092.63C852.76,1054.74 858.805,1017.04 863.898,979.198C867.254,952.386 870.446,925.553 873.474,898.701C877.748,885.444 877.7,865.826 879.645,851.65L893.423,752.823C896.24,732.744 898.297,711.697 902.979,691.998C910.042,683.178 919.334,592.136 921.087,574.628C923.581,564.331 924.331,552.712 925.828,542.188C926.257,538.897 926.645,536.052 927.97,532.992C930.408,530.8 932.624,530.873 935.722,530.637Z" style="fill:rgb(29,205,227);fill-rule:nonzero;"/>
    </g>
    <g transform="matrix(0.56255,0.00112699,-0.00112699,0.56255,-62.8969,-65.205)">
        <path d="M410.025,922.177C434.733,910.516 459.291,898.541 483.693,886.253C503.751,876.063 523.508,865.065 544.351,856.521C551.984,877.638 561.879,898.671 568.623,919.979C573.746,930.407 579.042,940.773 583.449,951.529C586.229,950.959 588.591,949.621 591.137,948.399C617.725,933.268 644.086,915.725 671.616,902.58C672.133,903.512 672.891,904.346 673.166,905.375C673.696,907.355 669.723,924.739 669.217,928.179L661.73,981.174C660.647,988.864 660.14,998.734 657.696,1006.01C657.283,1007.24 656.549,1008.09 655.734,1009.07C653.324,1020.55 652.217,1032.41 650.428,1044.02L639.198,1117.23C633.085,1158.69 625.562,1200 620.426,1241.59L609.231,1226.65C596.722,1215.22 573.515,1184.76 562.615,1170.17C551.998,1158.43 543.158,1145.14 532.306,1133.69C517.645,1133.73 500.979,1137.21 486.615,1134.7C473.745,1132.46 457.774,1121.94 445.54,1116.22C425.939,1107.05 406.067,1098.42 386.599,1088.97C361.762,1078.23 337.981,1064.76 313.841,1052.55C286.01,1038.47 256.844,1025.11 230.228,1008.93C284.239,980.317 339.024,951.493 390.816,919.015C393.015,916.924 393.622,915.532 396.922,915.761C401.001,916.045 406.519,920.105 410.025,922.177Z" style="fill:rgb(252,203,16);fill-rule:nonzero;"/>
    </g>
    <g transform="matrix(0.56255,0.00112699,-0.00112699,0.56255,-62.8969,-65.205)">
        <path d="M591.137,948.399C617.725,933.268 644.086,915.725 671.616,902.58C672.133,903.512 672.891,904.346 673.166,905.375C673.696,907.355 669.723,924.739 669.217,928.179L661.73,981.174C660.647,988.864 660.14,998.734 657.696,1006.01C657.283,1007.24 656.549,1008.09 655.734,1009.07C653.324,1020.55 652.217,1032.41 650.428,1044.02L639.198,1117.23C633.085,1158.69 625.562,1200 620.426,1241.59L609.231,1226.65C596.722,1215.22 573.515,1184.76 562.615,1170.17C563.731,1157.03 563.047,1143.43 562.919,1130.23C562.497,1086.67 558.878,1043.17 559.212,999.574L561.489,988.123C562.258,981.996 563.273,975.296 565.593,969.553C569.059,960.971 574.876,955.073 583.449,951.529C586.229,950.959 588.591,949.621 591.137,948.399Z" style="fill:rgb(168,62,217);fill-rule:nonzero;"/>
    </g>
    <g transform="matrix(0.56255,0.00112699,-0.00112699,0.56255,-62.8969,-65.205)">
        <path d="M591.137,948.399C594.036,949.779 596.804,950.793 599.834,951.828C599.969,951.874 600.093,951.95 600.222,952.01L599.884,953.585C600.659,994.288 602.33,1034.83 603.668,1075.5C604.316,1095.21 604.192,1114.92 604.98,1134.63C606.21,1165.35 608.575,1195.87 609.231,1226.65C596.722,1215.22 573.515,1184.76 562.615,1170.17C563.731,1157.03 563.047,1143.43 562.919,1130.23C562.497,1086.67 558.878,1043.17 559.212,999.574L561.489,988.123C562.258,981.996 563.273,975.296 565.593,969.553C569.059,960.971 574.876,955.073 583.449,951.529C586.229,950.959 588.591,949.621 591.137,948.399Z" style="fill:rgb(48,85,230);fill-rule:nonzero;"/>
    </g>
    <g transform="matrix(0.56255,0.00112699,-0.00112699,0.56255,-62.8969,-65.205)">
        <path d="M591.137,948.399C594.036,949.779 596.804,950.793 599.834,951.828C599.969,951.874 600.093,951.95 600.222,952.01L599.884,953.585C585.834,962.726 573.022,976.048 561.489,988.123C562.258,981.996 563.273,975.296 565.593,969.553C569.059,960.971 574.876,955.073 583.449,951.529C586.229,950.959 588.591,949.621 591.137,948.399Z" style="fill:rgb(96,34,204);fill-rule:nonzero;"/>
    </g>
    <g transform="matrix(0.56255,0.00112699,-0.00112699,0.56255,-62.8969,-65.205)">
        <path d="M591.137,948.399C617.725,933.268 644.086,915.725 671.616,902.58C672.133,903.512 672.891,904.346 673.166,905.375C673.696,907.355 669.723,924.739 669.217,928.179L661.73,981.174C660.647,988.864 660.14,998.734 657.696,1006.01C657.283,1007.24 656.549,1008.09 655.734,1009.07C656.064,999.436 658.146,989.309 659.516,979.753C662.617,958.111 666.273,936.424 668.391,914.662C646.071,927.786 622.918,939.542 600.222,952.01C600.093,951.95 599.969,951.874 599.834,951.828C596.804,950.793 594.036,949.779 591.137,948.399Z" style="fill:rgb(39,25,124);fill-rule:nonzero;"/>
    </g>
    <g transform="matrix(0.56255,0.00112699,-0.00112699,0.56255,-62.8969,-65.205)">
        <path d="M559.212,999.574C558.878,1043.17 562.497,1086.67 562.919,1130.23C563.047,1143.43 563.731,1157.03 562.615,1170.17C551.998,1158.43 543.158,1145.14 532.306,1133.69C517.645,1133.73 500.979,1137.21 486.615,1134.7C473.745,1132.46 457.774,1121.94 445.54,1116.22C425.939,1107.05 406.067,1098.42 386.599,1088.97L388.015,1086.84C441.759,1054.86 500.05,1029.36 555.293,999.973L559.212,999.574Z" style="fill:rgb(168,62,217);fill-rule:nonzero;"/>
    </g>
    <g transform="matrix(0.56255,0.00112699,-0.00112699,0.56255,-62.8969,-65.205)">
        <path d="M390.816,919.015C390,950.839 389.943,982.669 389.33,1014.5C388.866,1038.56 387.671,1062.78 388.015,1086.84L386.599,1088.97C361.762,1078.23 337.981,1064.76 313.841,1052.55C286.01,1038.47 256.844,1025.11 230.228,1008.93C284.239,980.317 339.024,951.493 390.816,919.015Z" style="fill:rgb(75,224,79);fill-rule:nonzero;"/>
    </g>
    <g transform="matrix(0.56255,0.00112699,-0.00112699,0.56255,-62.8969,-65.205)">
        <path d="M410.025,922.177C434.733,910.516 459.291,898.541 483.693,886.253C503.751,876.063 523.508,865.065 544.351,856.521C551.984,877.638 561.879,898.671 568.623,919.979C573.746,930.407 579.042,940.773 583.449,951.529C574.876,955.073 569.059,960.971 565.593,969.553C563.273,975.296 562.258,981.996 561.489,988.123L559.212,999.574L555.293,999.973C542.103,992.199 527.649,985.928 514.028,978.874C495.374,969.214 477.102,958.646 458.717,948.474C443.699,942.52 424.608,930.269 410.025,922.177Z" style="fill:url(#_Linear5);fill-rule:nonzero;"/>
    </g>
    <g transform="matrix(0.56255,0.00112699,-0.00112699,0.56255,-62.8969,-65.205)">
        <path d="M1267.97,774.254C1288.74,770.769 1309.86,769.032 1330.81,766.942L1415.32,758.592C1460.65,754.081 1506.05,750.288 1551.51,747.214C1571.47,745.758 1591.43,743.641 1611.44,743.052C1624.6,756.013 1638.01,769.748 1649.79,783.977C1653.74,788.977 1659,792.949 1663.84,797.057C1665.3,783.498 1669.38,770.137 1672.85,756.97C1682.62,766.305 1691.71,775.776 1699.98,786.475C1699.96,797.279 1699.45,808.319 1700.37,819.084C1730.17,836.828 1762.12,851.959 1793.38,866.948C1807.72,873.829 1823.1,879.984 1836.77,888.1C1791.59,912.08 1744.85,932.474 1700.32,957.88C1696.94,964.018 1699.34,1093.54 1699.78,1111.21C1678.68,1094.4 1660.54,1071.2 1641.77,1051.69C1603.13,1011.53 1566.34,969.713 1527.61,929.647C1512.13,913.623 1496.98,897.015 1480.03,882.498C1464.04,868.803 1445.78,857.746 1428.67,845.484C1413.65,835.922 1397.96,827.637 1381.17,821.65C1371.76,819.671 1361.65,814.428 1352.37,811.309C1340.82,807.424 1328.69,804.774 1317.36,800.352C1299.69,796.61 1282.19,795.223 1264.17,794.888C1265.26,787.989 1266.68,781.119 1267.97,774.254Z" style="fill:rgb(168,62,217);fill-rule:nonzero;"/>
    </g>
    <g transform="matrix(0.56255,0.00112699,-0.00112699,0.56255,-62.8969,-65.205)">
        <path d="M1267.97,774.254C1288.74,770.769 1309.86,769.032 1330.81,766.942L1415.32,758.592C1460.65,754.081 1506.05,750.288 1551.51,747.214C1571.47,745.758 1591.43,743.641 1611.44,743.052C1624.6,756.013 1638.01,769.748 1649.79,783.977C1653.74,788.977 1659,792.949 1663.84,797.057C1665.3,783.498 1669.38,770.137 1672.85,756.97C1682.62,766.305 1691.71,775.776 1699.98,786.475C1699.96,797.279 1699.45,808.319 1700.37,819.084L1699.99,822.69C1681.39,832.665 1662.43,844.735 1643.11,852.944C1630.31,850.939 1616.48,852.014 1603.51,851.493C1571.45,850.118 1539.38,849.004 1507.3,848.153C1491.76,847.774 1476.23,847.241 1460.71,846.552C1450.19,846.049 1439.13,844.751 1428.67,845.484C1413.65,835.922 1397.96,827.637 1381.17,821.65C1371.76,819.671 1361.65,814.428 1352.37,811.309C1340.82,807.424 1328.69,804.774 1317.36,800.352C1299.69,796.61 1282.19,795.223 1264.17,794.888C1265.26,787.989 1266.68,781.119 1267.97,774.254Z" style="fill:rgb(39,25,124);fill-rule:nonzero;"/>
    </g>
    <g transform="matrix(0.56255,0.00112699,-0.00112699,0.56255,-62.8969,-65.205)">
        <path d="M1672.85,756.97C1682.62,766.305 1691.71,775.776 1699.98,786.475C1699.96,797.279 1699.45,808.319 1700.37,819.084L1699.99,822.69C1681.39,832.665 1662.43,844.735 1643.11,852.944C1630.31,850.939 1616.48,852.014 1603.51,851.493C1571.45,850.118 1539.38,849.004 1507.3,848.153C1491.76,847.774 1476.23,847.241 1460.71,846.552C1450.19,846.049 1439.13,844.751 1428.67,845.484C1413.65,835.922 1397.96,827.637 1381.17,821.65C1381.78,819.498 1399.81,819.221 1402.6,819.063C1430.17,817.496 1658.71,804.158 1663.55,800.354L1663.84,797.057C1665.3,783.498 1669.38,770.137 1672.85,756.97Z" style="fill:rgb(96,34,204);fill-rule:nonzero;"/>
    </g>
    <g transform="matrix(0.56255,0.00112699,-0.00112699,0.56255,-62.8969,-65.205)">
        <path d="M1267.97,774.254C1283.22,776.741 1306.55,789.213 1317.36,800.352C1299.69,796.61 1282.19,795.223 1264.17,794.888C1265.26,787.989 1266.68,781.119 1267.97,774.254Z" style="fill:rgb(96,34,204);fill-rule:nonzero;"/>
    </g>
    <g transform="matrix(0.56255,0.00112699,-0.00112699,0.56255,-62.8969,-65.205)">
        <path d="M1700.37,819.084C1730.17,836.828 1762.12,851.959 1793.38,866.948C1807.72,873.829 1823.1,879.984 1836.77,888.1C1791.59,912.08 1744.85,932.474 1700.32,957.88C1700.91,954.67 1700.9,951.477 1700.97,948.226C1699.33,906.541 1700.54,864.451 1699.99,822.69L1700.37,819.084Z" style="fill:rgb(96,34,204);fill-rule:nonzero;"/>
    </g>
    <g transform="matrix(0.56255,0.00112699,-0.00112699,0.56255,-62.8969,-65.205)">
        <path d="M1643.11,852.944C1662.43,844.735 1681.39,832.665 1699.99,822.69C1700.54,864.451 1699.33,906.541 1700.97,948.226C1692.85,946.061 1666.44,929.501 1657.22,924.463C1631.9,910.627 1606.13,897.616 1580.92,883.599C1601.49,873.034 1622.66,863.683 1643.11,852.944Z" style="fill:rgb(254,233,35);fill-rule:nonzero;"/>
    </g>
    <g transform="matrix(0.56255,0.00112699,-0.00112699,0.56255,-62.8969,-65.205)">
        <path d="M989.04,1426.84C1000.96,1435.76 1011.8,1444.98 1024.65,1452.76C1042.28,1465.9 1059.05,1480.17 1076.84,1493.1C1090.04,1502.7 1103.9,1511.35 1117.16,1520.84C1126.78,1527.72 1135.55,1535.84 1144.77,1543.24C1153.51,1550.26 1162.92,1556.78 1171.29,1564.21C1171.58,1564.28 1171.87,1564.35 1172.15,1564.43C1188.59,1568.94 1203.87,1577.64 1220.56,1582.25C1239.52,1587.5 1258.82,1591.38 1278.34,1593.84C1290.59,1595.29 1303.14,1595.65 1315.3,1597.5C1306.96,1602.74 1296.4,1609.88 1286.75,1612.38C1285.67,1612.87 1284.58,1613.34 1283.48,1613.79C1161,1662.63 1024.23,1661.32 902.711,1610.14L902.127,1610.3C887.105,1601.21 863.983,1594.22 853.154,1579.93C903.822,1558.12 943.814,1519.05 969.475,1470.53C976.901,1456.49 982.834,1441.45 989.04,1426.84Z" style="fill:rgb(168,62,217);fill-rule:nonzero;"/>
    </g>
    <g transform="matrix(0.56255,0.00112699,-0.00112699,0.56255,-62.8969,-65.205)">
        <path d="M989.04,1426.84C1000.96,1435.76 1011.8,1444.98 1024.65,1452.76C984.001,1504.68 940.08,1555.91 902.711,1610.14L902.127,1610.3C887.105,1601.21 863.983,1594.22 853.154,1579.93C903.822,1558.12 943.814,1519.05 969.475,1470.53C976.901,1456.49 982.834,1441.45 989.04,1426.84Z" style="fill:rgb(252,203,16);fill-rule:nonzero;"/>
    </g>
    <g transform="matrix(0.56255,0.00112699,-0.00112699,0.56255,-62.8969,-65.205)">
        <path d="M1171.29,1564.21C1171.58,1564.28 1171.87,1564.35 1172.15,1564.43C1188.59,1568.94 1203.87,1577.64 1220.56,1582.25C1239.52,1587.5 1258.82,1591.38 1278.34,1593.84C1290.59,1595.29 1303.14,1595.65 1315.3,1597.5C1306.96,1602.74 1296.4,1609.88 1286.75,1612.38C1279.82,1609.63 1269.92,1610.84 1262.34,1609.28C1232.76,1603.21 1192.44,1586.37 1171.29,1564.21Z" style="fill:rgb(39,25,124);fill-rule:nonzero;"/>
    </g>
    <g transform="matrix(0.56255,0.00112699,-0.00112699,0.56255,-62.8969,-65.205)">
        <path d="M1604.35,1023.61C1610.2,1026.41 1653.08,1078.13 1657.99,1085.61C1664.39,1095.32 1669.58,1105.78 1673.45,1116.74C1679.95,1134.89 1683.22,1154.13 1685.67,1173.21C1695.58,1250.62 1682.99,1329.25 1649.4,1399.7C1612.28,1478.41 1541.73,1538 1460.31,1567.2C1389.47,1592.61 1263.93,1592.74 1195.5,1560.32C1178.58,1552.8 1163.42,1544.2 1148.53,1533.18C1150.92,1533.88 1153.32,1534.57 1155.72,1535.25C1258.07,1564 1367.97,1561.01 1462,1508C1479.55,1498.11 1496.84,1486.95 1512.3,1474.03C1570.65,1425.27 1616.39,1351.85 1636.72,1278.75C1654.21,1215.83 1655.9,1142.72 1633.01,1080.81C1625.55,1060.64 1614.88,1042.26 1604.35,1023.61Z" style="fill:rgb(12,57,132);fill-rule:nonzero;"/>
    </g>
    <g transform="matrix(0.56255,0.00112699,-0.00112699,0.56255,-62.8969,-65.205)">
        <path d="M1206.32,1060.28C1212.76,1059.39 1218.98,1058.97 1225.48,1058.86C1232.89,1066.88 1240.16,1075.28 1249.38,1081.27C1273.5,1068.51 1283.81,1064.81 1311.59,1068.18C1316,1082.3 1318.53,1095.68 1320.13,1110.32C1320.45,1136.28 1319.8,1193.8 1306.76,1215.1C1295.03,1242.34 1275.13,1261.13 1247.41,1272.04C1237.09,1276.1 1213.45,1283.48 1202.67,1281.42C1192.17,1280.53 1181.78,1279.94 1171.24,1279.74C1171.23,1269.6 1171.09,1259.46 1170.79,1249.33C1166.96,1238.75 1169.44,1235.6 1161.05,1226.37C1148.71,1215.08 1136.92,1203.3 1125.13,1191.44C1121.29,1187.68 1117.3,1183.69 1113,1180.46C1108.7,1177.23 1103.72,1174.53 1098.43,1173.39C1085.89,1170.7 1061.2,1174.24 1048.11,1176.02L1049.46,1174.08C1045.18,1166.33 1035.54,1159.33 1029.62,1152.45L1028.82,1151.51C1045.82,1152.63 1064.8,1149.45 1081.91,1148.17C1120.8,1145.46 1159.65,1142.21 1198.45,1138.43C1199.56,1112.28 1204.87,1086.46 1206.32,1060.28Z" style="fill:rgb(96,34,204);fill-rule:nonzero;"/>
    </g>
    <g transform="matrix(0.56255,0.00112699,-0.00112699,0.56255,-62.8969,-65.205)">
        <path d="M1206.32,1060.28C1212.76,1059.39 1218.98,1058.97 1225.48,1058.86C1232.89,1066.88 1240.16,1075.28 1249.38,1081.27C1273.5,1068.51 1283.81,1064.81 1311.59,1068.18C1316,1082.3 1318.53,1095.68 1320.13,1110.32C1303.17,1105.09 1286.21,1098.17 1269.06,1093.91C1265.99,1122.48 1263.55,1151.11 1261.73,1179.78C1232.94,1182.71 1204.1,1185.15 1175.23,1187.08C1158.69,1188.28 1141.42,1188.33 1125.13,1191.44C1121.29,1187.68 1117.3,1183.69 1113,1180.46C1108.7,1177.23 1103.72,1174.53 1098.43,1173.39C1085.89,1170.7 1061.2,1174.24 1048.11,1176.02L1049.46,1174.08C1045.18,1166.33 1035.54,1159.33 1029.62,1152.45L1028.82,1151.51C1045.82,1152.63 1064.8,1149.45 1081.91,1148.17C1120.8,1145.46 1159.65,1142.21 1198.45,1138.43C1199.56,1112.28 1204.87,1086.46 1206.32,1060.28Z" style="fill:rgb(39,25,124);fill-rule:nonzero;"/>
    </g>
    <g transform="matrix(0.56255,0.00112699,-0.00112699,0.56255,-62.8969,-65.205)">
        <path d="M1161.05,1226.37C1190.05,1225.45 1219.03,1222.04 1247.9,1219.18C1261.87,1217.8 1293.84,1212.42 1306.76,1215.1C1295.03,1242.34 1275.13,1261.13 1247.41,1272.04C1237.09,1276.1 1213.45,1283.48 1202.67,1281.42C1192.17,1280.53 1181.78,1279.94 1171.24,1279.74C1171.23,1269.6 1171.09,1259.46 1170.79,1249.33C1166.96,1238.75 1169.44,1235.6 1161.05,1226.37Z" style="fill:rgb(168,62,217);fill-rule:nonzero;"/>
    </g>
    <g transform="matrix(0.56255,0.00112699,-0.00112699,0.56255,-62.8969,-65.205)">
        <path d="M1170.79,1249.33C1180.66,1260.75 1191.32,1271.47 1202.67,1281.42C1192.17,1280.53 1181.78,1279.94 1171.24,1279.74C1171.23,1269.6 1171.09,1259.46 1170.79,1249.33Z" style="fill:rgb(39,25,124);fill-rule:nonzero;"/>
    </g>
    <g transform="matrix(0.56255,0.00112699,-0.00112699,0.56255,-62.8969,-65.205)">
        <path d="M761.187,521.483C767.809,514.179 775.927,508.661 783.853,502.891C798.493,492.233 813.039,481.431 828.539,472.038C915.541,418.218 1018.34,395.793 1119.85,408.49C1147.21,411.843 1171.17,421.141 1197.38,425.106L1198.81,425.315C1187.78,443.543 1170.89,457.601 1159.73,475.902C1141.51,477.177 1123.18,480.015 1105,481.942L996.38,492.712C995.051,513.242 991.61,533.563 990.573,554.151C974.889,537.563 960.785,518.315 946.374,500.545C925.119,501.948 903.696,505.382 882.492,507.79L761.187,521.483Z" style="fill:rgb(244,42,113);fill-rule:nonzero;"/>
    </g>
    <g transform="matrix(0.56255,0.00112699,-0.00112699,0.56255,-62.8969,-65.205)">
        <path d="M931.355,1364.54C936.131,1368.8 940.311,1375.26 944.38,1380.31C953.445,1391.56 962.232,1401.91 973.088,1411.56C972.03,1417.05 970.922,1422.51 969.298,1427.86C951.934,1485.14 909.358,1531.97 857.064,1559.79C787.172,1596.97 688.079,1607.45 612.754,1584.37C595.277,1578.52 579.79,1566.98 564.908,1556.37C634.03,1572.71 700.675,1569.36 766.492,1542.03C825.54,1517.51 877.833,1470.17 908.998,1414.47C917.873,1398.61 924.474,1381.32 931.355,1364.54Z" style="fill:rgb(12,57,132);fill-rule:nonzero;"/>
    </g>
    <g transform="matrix(0.56255,0.00112699,-0.00112699,0.56255,-62.8969,-65.205)">
        <path d="M597.808,795.932C630.161,784.286 661.346,769.224 692.358,754.412C691.788,761.389 690.704,768.297 689.689,775.22C689.148,781.034 688.938,787.087 687.571,792.769C685.312,807.843 684.053,824.299 680.283,839.004C678.44,850.241 670.449,894.247 671.616,902.58C644.086,915.725 617.725,933.268 591.137,948.399C588.591,949.621 586.229,950.959 583.449,951.529C579.042,940.773 573.746,930.407 568.623,919.979C561.879,898.671 551.984,877.638 544.351,856.521L548.299,854.505C555.388,845.245 560.758,794.777 564.242,779.744C575.203,785.684 586.211,791.329 597.808,795.932Z" style="fill:rgb(253,50,82);fill-rule:nonzero;"/>
    </g>
    <g transform="matrix(0.56255,0.00112699,-0.00112699,0.56255,-62.8969,-65.205)">
        <path d="M597.808,795.932C630.161,784.286 661.346,769.224 692.358,754.412C691.788,761.389 690.704,768.297 689.689,775.22C689.148,781.034 688.938,787.087 687.571,792.769C685.312,807.843 684.053,824.299 680.283,839.004C665.304,829.752 649.906,821.198 634.137,813.369C628.549,810.813 623.124,807.784 617.68,804.932C610.961,802.146 604.333,799.145 597.808,795.932Z" style="fill:rgb(96,34,204);fill-rule:nonzero;"/>
    </g>
    <g transform="matrix(0.56255,0.00112699,-0.00112699,0.56255,-62.8969,-65.205)">
        <path d="M634.137,813.369C645.692,806.51 673.328,794.416 686.231,791.008L687.571,792.769C685.312,807.843 684.053,824.299 680.283,839.004C665.304,829.752 649.906,821.198 634.137,813.369Z" style="fill:rgb(96,34,204);fill-rule:nonzero;"/>
    </g>
    <g transform="matrix(0.56255,0.00112699,-0.00112699,0.56255,-62.8969,-65.205)">
        <path d="M617.68,804.932C631.894,797.682 675.979,777.002 689.689,775.22C689.148,781.034 688.938,787.087 687.571,792.769L686.231,791.008C673.328,794.416 645.692,806.51 634.137,813.369C628.549,810.813 623.124,807.784 617.68,804.932Z" style="fill:rgb(39,25,124);fill-rule:nonzero;"/>
    </g>
    <g transform="matrix(0.56255,0.00112699,-0.00112699,0.56255,-62.8969,-65.205)">
        <path d="M1433.65,134.408C1427.57,149.861 1417.91,164.615 1410.3,179.432L1350.91,294.531C1334.33,327.298 1318.26,360.602 1302.72,393.867C1291.79,417.251 1281.55,441.233 1268.97,463.784C1232.48,467.13 1196.19,472.62 1159.73,475.902C1170.89,457.601 1187.78,443.543 1198.81,425.315C1218.03,402.053 1238.08,379.507 1257.3,356.247C1290.92,315.462 1324.03,274.264 1356.63,232.662C1374.01,210.852 1390.72,188.443 1407.82,166.402C1416.16,155.644 1424.16,144.182 1433.65,134.408Z" style="fill:rgb(252,203,16);fill-rule:nonzero;"/>
    </g>
    <g transform="matrix(0.56255,0.00112699,-0.00112699,0.56255,-62.8969,-65.205)">
        <path d="M818.879,1593.76C830.328,1589.21 841.754,1584.6 853.154,1579.93C863.983,1594.22 887.105,1601.21 902.127,1610.3C882.868,1634.56 861.241,1657.52 840.808,1680.84L745.188,1791.33C712.488,1829.28 683.1,1870.25 649.841,1907.66C654.335,1897.8 660.508,1888.61 665.806,1879.17L695.03,1825.91C723.892,1772.81 752.388,1719.51 780.516,1666.01C793.189,1641.99 807.207,1618.26 818.879,1593.76Z" style="fill:rgb(251,159,12);fill-rule:nonzero;"/>
    </g>
    <g transform="matrix(0.56255,0.00112699,-0.00112699,0.56255,-62.8969,-65.205)">
        <path d="M344.738,1382.62C350.294,1386.66 354.95,1395.73 359.147,1401.41C381.673,1431.91 413.133,1453.22 440.58,1478.75C418.685,1490.19 396.094,1500.21 373.786,1510.82C350.015,1522.23 326.324,1533.81 302.715,1545.55C279.799,1556.33 258.548,1566.57 238.733,1582.71C246.193,1563.86 256.795,1546.5 266.091,1528.54C291.512,1479.41 318.826,1431.48 344.738,1382.62Z" style="fill:rgb(75,224,79);fill-rule:nonzero;"/>
    </g>
    <g transform="matrix(0.56255,0.00112699,-0.00112699,0.56255,-62.8969,-65.205)">
        <path d="M718.433,579.785C719.382,581.069 719.344,581.736 719.27,583.395C718.689,596.493 714.749,611.799 712.673,625.027C706.792,662.498 700.065,699.932 694.597,737.451C663.237,754.757 631.472,771.319 599.328,787.122C598.804,786.717 598.527,786.066 598.162,785.513C601.095,774.165 605.905,763.024 610.078,752.076C634.242,688.681 669.812,627.498 718.433,579.785Z" style="fill:rgb(233,34,174);fill-rule:nonzero;"/>
    </g>
    <g transform="matrix(0.56255,0.00112699,-0.00112699,0.56255,-62.8969,-65.205)">
        <path d="M350.248,648.169C378.592,645.05 404.037,665.649 406.887,694.021C409.738,722.392 388.898,747.642 360.501,750.223C332.481,752.771 307.64,732.268 304.828,704.274C302.016,676.279 322.282,651.246 350.248,648.169Z" style="fill:rgb(252,203,16);fill-rule:nonzero;"/>
    </g>
    <g transform="matrix(0.56255,0.00112699,-0.00112699,0.56255,-62.8969,-65.205)">
        <path d="M1561.29,197.993C1561.29,203.005 1531.07,246.984 1526.39,254.541C1486.76,318.487 1450.64,384.421 1411.54,448.649C1387.41,449.579 1362.53,453.669 1338.44,456.185C1338.39,450.812 1350.36,438.926 1354.33,434.352C1374.13,411.537 1395.58,390.115 1415.8,367.658C1465.74,312.355 1514.25,255.782 1561.29,197.993Z" style="fill:rgb(75,224,79);fill-rule:nonzero;"/>
    </g>
    <g transform="matrix(0.56255,0.00112699,-0.00112699,0.56255,-62.8969,-65.205)">
        <path d="M1660.06,585.636L1661.34,581.968C1661.96,581.82 1662.56,581.516 1663.19,581.522C1665.04,581.539 1772.06,644.599 1780.29,649.638L1793.31,657.679C1755.4,676.757 1718.8,698.386 1681.16,718.023C1685.98,695.813 1692.68,673.88 1696.75,651.542L1691.05,646.597C1676.36,639.449 1662.27,629.566 1648.1,621.285C1651.07,609.193 1655.63,597.264 1660.06,585.636Z" style="fill:rgb(75,224,79);fill-rule:nonzero;"/>
    </g>
    <g transform="matrix(0.56255,0.00112699,-0.00112699,0.56255,-62.8969,-65.205)">
        <path d="M1660.06,585.636C1666.54,598.551 1672.54,611.709 1679.15,624.557C1682.93,631.901 1687.63,639.148 1691.05,646.597C1676.36,639.449 1662.27,629.566 1648.1,621.285C1651.07,609.193 1655.63,597.264 1660.06,585.636Z" style="fill:rgb(68,199,142);fill-rule:nonzero;"/>
    </g>
    <g transform="matrix(0.56255,0.00112699,-0.00112699,0.56255,-62.8969,-65.205)">
        <path d="M1644.55,635.437C1657.47,642.028 1670.04,649.269 1682.22,657.133C1673.22,699.552 1661.51,742.235 1649.79,783.977C1638.01,769.748 1624.6,756.013 1611.44,743.052C1622.07,707.058 1633.11,671.185 1644.55,635.437Z" style="fill:rgb(12,57,132);fill-rule:nonzero;"/>
    </g>
    <g transform="matrix(0.56255,0.00112699,-0.00112699,0.56255,-62.8969,-65.205)">
        <path d="M746.99,1608.59C750.702,1608.16 754.101,1607.7 757.813,1608.28C757.317,1611.49 647.907,1736.84 633.486,1754.07C615.872,1775.12 599.007,1796.88 581.919,1818.36L575.209,1826.26C586.621,1802.42 602.51,1780.13 616.096,1757.44L704.96,1610.61C718.99,1610.44 733.009,1609.77 746.99,1608.59Z" style="fill:rgb(252,203,16);fill-rule:nonzero;"/>
    </g>
    <g transform="matrix(0.56255,0.00112699,-0.00112699,0.56255,-62.8969,-65.205)">
        <path d="M211.727,1435.19C210.244,1435.06 210.207,1435.1 208.522,1434.74C199.35,1432.79 191.181,1425.56 186.287,1417.83C180.097,1408.04 178.813,1395.96 181.752,1384.85C184.634,1373.55 191.946,1363.88 202.038,1358.03C211.298,1352.69 222.34,1351.36 232.602,1354.36C244.26,1357.8 251.414,1365.82 256.783,1376.25C260.816,1388.35 260.568,1400.32 254.626,1411.82C249.305,1422.12 239.719,1430.87 228.558,1434.33C223.116,1436.07 217.317,1436.36 211.727,1435.19Z" style="fill:rgb(233,34,174);fill-rule:nonzero;"/>
    </g>
    <g transform="matrix(0.56255,0.00112699,-0.00112699,0.56255,-62.8969,-65.205)">
        <path d="M256.783,1376.25C260.816,1388.35 260.568,1400.32 254.626,1411.82C249.305,1422.12 239.719,1430.87 228.558,1434.33C223.116,1436.07 217.317,1436.36 211.727,1435.19C213.488,1435.06 216.55,1435.21 218.125,1434.55C221.208,1433.28 224.324,1423.13 226.157,1419.89C230.979,1411.36 239.015,1403.91 244.936,1396.03C249.671,1389.72 252.718,1382.95 256.783,1376.25Z" style="fill:rgb(159,14,74);fill-rule:nonzero;"/>
    </g>
    <g transform="matrix(0.56255,0.00112699,-0.00112699,0.56255,-62.8969,-65.205)">
        <path d="M1691.26,1431.92C1691.55,1432 1691.83,1432.08 1692.11,1432.19C1694.88,1439.55 1690.2,1525.61 1690.01,1541.1C1672.91,1532.75 1656.55,1521.9 1640.23,1512.07C1628.63,1505.04 1617,1498.07 1605.78,1490.43C1633.77,1470.25 1662.75,1451.37 1691.26,1431.92Z" style="fill:rgb(244,42,113);fill-rule:nonzero;"/>
    </g>
    <g transform="matrix(0.56255,0.00112699,-0.00112699,0.56255,-62.8969,-65.205)">
        <path d="M1484.83,1605.05C1504.88,1600.79 1524.61,1613.53 1528.98,1633.56C1533.34,1653.6 1520.7,1673.39 1500.69,1677.85C1480.54,1682.35 1460.57,1669.6 1456.18,1649.42C1451.78,1629.25 1464.63,1609.35 1484.83,1605.05Z" style="fill:rgb(39,25,124);fill-rule:nonzero;"/>
    </g>
    <g transform="matrix(0.56255,0.00112699,-0.00112699,0.56255,-62.8969,-65.205)">
        <path d="M191.906,760.983C194.72,760.872 197.486,760.766 200.182,761.708C210.77,765.404 220.808,773.79 230.581,779.36C248.771,789.728 365.648,852.972 370.346,862.225C367.624,862.953 365.977,862.177 363.272,861.505C342.933,851.732 320.977,843.982 300,835.61C278.343,826.966 256.989,817.58 235.418,808.725C220.335,802.533 203.658,797.192 189.383,789.389C186.98,788.075 185.297,786.742 183.748,784.455C181.521,781.167 180.623,777.438 181.547,773.533C182.958,767.573 186.979,764.163 191.906,760.983Z" style="fill:rgb(233,34,174);fill-rule:nonzero;"/>
    </g>
    <g transform="matrix(0.56255,0.00112699,-0.00112699,0.56255,-62.8969,-65.205)">
        <path d="M786.243,214.587C804.506,211.089 822.173,222.977 825.812,241.213C829.451,259.448 817.701,277.206 799.494,280.987C781.086,284.809 763.089,272.901 759.41,254.464C755.73,236.027 767.778,218.123 786.243,214.587Z" style="fill:rgb(75,224,79);fill-rule:nonzero;"/>
    </g>
    <g transform="matrix(0.56255,0.00112699,-0.00112699,0.56255,-62.8969,-65.205)">
        <path d="M1228.02,1777.46C1245.21,1774.7 1261.41,1786.32 1264.3,1803.49C1267.2,1820.66 1255.7,1836.95 1238.56,1839.98C1221.22,1843.04 1204.71,1831.39 1201.79,1814.03C1198.86,1796.67 1210.64,1780.25 1228.02,1777.46Z" style="fill:rgb(252,203,16);fill-rule:nonzero;"/>
    </g>
    <g transform="matrix(0.56255,0.00112699,-0.00112699,0.56255,-62.8969,-65.205)">
        <path d="M1734.06,1189.57C1749.58,1186.99 1764.26,1197.46 1766.85,1212.98C1769.45,1228.5 1758.98,1243.18 1743.47,1245.78C1727.94,1248.39 1713.24,1237.91 1710.64,1222.38C1708.04,1206.86 1718.53,1192.16 1734.06,1189.57Z" style="fill:rgb(252,203,16);fill-rule:nonzero;"/>
    </g>
    <g transform="matrix(0.56255,0.00112699,-0.00112699,0.56255,-62.8969,-65.205)">
        <path d="M1108.91,1188.92C1110,1189.57 1110.98,1190.18 1111.96,1190.99C1120.87,1198.36 1151.99,1232.05 1155.37,1241.38C1159.26,1252.11 1157.77,1266.28 1158.91,1277.7C1145.95,1273.48 1132.09,1267.66 1122.41,1257.72C1105.59,1240.44 1108.27,1211.2 1108.91,1188.92Z" style="fill:rgb(39,25,124);fill-rule:nonzero;"/>
    </g>
    <g transform="matrix(0.56255,0.00112699,-0.00112699,0.56255,-62.8969,-65.205)">
        <path d="M1579.38,333.774C1593.94,329.941 1608.86,338.628 1612.71,353.184C1616.56,367.74 1607.89,382.664 1593.34,386.53C1578.76,390.403 1563.81,381.717 1559.95,367.137C1556.09,352.557 1564.8,337.614 1579.38,333.774Z" style="fill:rgb(137,108,106);fill-rule:nonzero;"/>
    </g>
    <g transform="matrix(0.56255,0.00112699,-0.00112699,0.56255,-62.8969,-65.205)">
        <path d="M535.96,654.561C545.572,652.896 555.335,656.535 561.513,664.085C567.69,671.634 569.324,681.925 565.789,691.017C562.255,700.109 554.099,706.594 544.444,707.988C529.804,710.103 516.18,700.067 513.86,685.458C511.54,670.849 521.385,657.085 535.96,654.561Z" style="fill:rgb(29,205,227);fill-rule:nonzero;"/>
    </g>
    <g transform="matrix(0.56255,0.00112699,-0.00112699,0.56255,-62.8969,-65.205)">
        <path d="M911.83,1695.89C925.621,1693.85 938.472,1703.33 940.58,1717.11C942.688,1730.9 933.262,1743.79 919.489,1745.96C905.626,1748.15 892.628,1738.65 890.506,1724.77C888.384,1710.9 897.947,1697.95 911.83,1695.89Z" style="fill:rgb(68,199,142);fill-rule:nonzero;"/>
    </g>
    <g transform="matrix(0.56255,0.00112699,-0.00112699,0.56255,-62.8969,-65.205)">
        <path d="M997.406,1125.16C1008.1,1133.61 1018.39,1142.72 1028.82,1151.51L1029.62,1152.45C1035.54,1159.33 1045.18,1166.33 1049.46,1174.08L1048.11,1176.02C1028.47,1175.49 1007.19,1179.81 987.473,1181.31C991.368,1162.73 994.435,1143.91 997.406,1125.16Z" style="fill:rgb(12,57,132);fill-rule:nonzero;"/>
    </g>
    <g transform="matrix(0.56255,0.00112699,-0.00112699,0.56255,-62.8969,-65.205)">
        <path d="M1840.65,1233.79C1843.51,1236.72 1845.68,1241.94 1847.82,1245.51C1854.92,1257.38 1862.78,1261.88 1874.26,1268.73C1858.66,1274.48 1850.96,1279.18 1842.03,1293.44L1839.7,1297.12C1831.68,1291.05 1839.35,1279.98 1812.95,1266.48C1829.2,1257.41 1833.03,1249.86 1840.65,1233.79Z" style="fill:rgb(29,205,227);fill-rule:nonzero;"/>
    </g>
    <g transform="matrix(0.56255,0.00112699,-0.00112699,0.56255,-62.8969,-65.205)">
        <path d="M887.198,312.495C898.311,310.639 908.853,318.057 910.859,329.144C912.865,340.232 905.59,350.873 894.531,353.029C887.243,354.449 879.754,351.837 874.93,346.192C870.107,340.547 868.695,332.742 871.235,325.765C873.775,318.788 879.874,313.718 887.198,312.495Z" style="fill:rgb(252,203,16);fill-rule:nonzero;"/>
    </g>
    <g transform="matrix(0.56255,0.00112699,-0.00112699,0.56255,-62.8969,-65.205)">
        <path d="M460.776,1495.65C461.812,1495.88 462.318,1495.94 463.342,1496.46C465.5,1497.54 466.502,1498.83 466.955,1501.1C456.279,1515.5 437.994,1532.41 425.414,1546.03C387.621,1586.95 349.255,1627.33 310.327,1667.17L307.684,1669.06C312.348,1658.17 364.745,1603.84 376.842,1590.13L427.886,1531.73C438.548,1519.53 449.016,1506.8 460.776,1495.65Z" style="fill:rgb(251,159,12);fill-rule:nonzero;"/>
    </g>
    <g transform="matrix(0.56255,0.00112699,-0.00112699,0.56255,-62.8969,-65.205)">
        <path d="M1099.31,195.72C1100.49,197.236 1100.1,196.505 1100.78,198.362C1101.67,200.788 1102.49,203.216 1103.61,205.554C1109.7,218.359 1115.47,224.42 1128.9,229.163C1114.49,237.444 1107.46,244.442 1098.92,258.862C1086.7,239.573 1090.5,240.444 1069.22,228.898C1088.28,219.906 1091.48,214.505 1099.31,195.72Z" style="fill:rgb(57,250,250);fill-rule:nonzero;"/>
    </g>
    <g transform="matrix(0.56255,0.00112699,-0.00112699,0.56255,-62.8969,-65.205)">
        <path d="M491.747,776.896C498.875,775.558 506.172,778.167 510.835,783.722C515.499,789.277 516.805,796.915 514.253,803.705C511.7,810.494 505.685,815.379 498.517,816.486C487.68,818.159 477.503,810.831 475.655,800.022C473.806,789.213 480.969,778.919 491.747,776.896Z" style="fill:rgb(252,203,16);fill-rule:nonzero;"/>
    </g>
    <g transform="matrix(0.56255,0.00112699,-0.00112699,0.56255,-62.8969,-65.205)">
        <path d="M1214.95,277.319C1225.22,275.791 1234.83,282.736 1236.6,292.966C1238.38,303.196 1231.67,312.974 1221.48,314.994C1214.67,316.345 1207.67,313.899 1203.18,308.605C1198.69,303.31 1197.42,295.999 1199.86,289.501C1202.31,283.004 1208.08,278.341 1214.95,277.319Z" style="fill:rgb(252,203,16);fill-rule:nonzero;"/>
    </g>
    <g transform="matrix(0.56255,0.00112699,-0.00112699,0.56255,-62.8969,-65.205)">
        <path d="M789.181,1832.74C799.189,1830.35 809.261,1836.45 811.78,1846.42C814.299,1856.4 808.33,1866.55 798.386,1869.2C791.839,1870.94 784.861,1869.03 780.119,1864.19C775.377,1859.35 773.606,1852.33 775.482,1845.82C777.358,1839.31 782.591,1834.31 789.181,1832.74Z" style="fill:rgb(233,34,174);fill-rule:nonzero;"/>
    </g>
    <g transform="matrix(0.56255,0.00112699,-0.00112699,0.56255,-62.8969,-65.205)">
        <path d="M503.16,518.726C520.854,519.582 579.365,556.298 591.816,569.602L590.746,570.921C575.38,567.139 508.17,536.913 500.821,525.027C500.845,522.014 501.615,521.244 503.16,518.726Z" style="fill:rgb(233,34,174);fill-rule:nonzero;"/>
    </g>
    <g transform="matrix(0.56255,0.00112699,-0.00112699,0.56255,-62.8969,-65.205)">
        <path d="M456.242,1603.01C459.125,1602.88 462.159,1602.6 464.915,1603.62C469.188,1605.24 472.628,1608.51 474.454,1612.7C476.296,1617.12 476.298,1622.1 474.46,1626.52C472.124,1632.21 468.276,1634.58 462.827,1636.9C460.825,1636.96 458.774,1637.02 456.808,1636.58C452.397,1635.58 448.083,1632.82 445.665,1628.96C443.24,1625.09 442.979,1620.3 444.124,1615.97C445.92,1609.18 450.378,1606.26 456.242,1603.01Z" style="fill:rgb(75,224,79);fill-rule:nonzero;"/>
    </g>
    <g transform="matrix(0.56255,0.00112699,-0.00112699,0.56255,-62.8969,-65.205)">
        <path d="M1816.45,802.599C1825.36,801.043 1833.87,806.95 1835.52,815.843C1837.17,824.735 1831.35,833.3 1822.48,835.045C1816.65,836.191 1810.66,834.119 1806.79,829.619C1802.91,825.119 1801.76,818.885 1803.76,813.295C1805.76,807.705 1810.6,803.621 1816.45,802.599Z" style="fill:rgb(252,203,16);fill-rule:nonzero;"/>
    </g>
    <g transform="matrix(0.56255,0.00112699,-0.00112699,0.56255,-62.8969,-65.205)">
        <path d="M1112,1850.72C1121,1849.73 1129.09,1856.23 1130.06,1865.23C1131.03,1874.23 1124.5,1882.31 1115.5,1883.25C1106.53,1884.19 1098.49,1877.7 1097.53,1868.73C1096.56,1859.76 1103.04,1851.71 1112,1850.72Z" style="fill:rgb(233,34,174);fill-rule:nonzero;"/>
    </g>
    <g transform="matrix(0.56255,0.00112699,-0.00112699,0.56255,-62.8969,-65.205)">
        <path d="M520.353,1746.63C525.852,1745.06 531.772,1746.57 535.847,1750.58C539.923,1754.59 541.523,1760.49 540.036,1766.01C538.548,1771.53 534.203,1775.83 528.663,1777.25C520.259,1779.41 511.68,1774.41 509.407,1766.04C507.135,1757.67 512.011,1749.02 520.353,1746.63Z" style="fill:rgb(252,203,16);fill-rule:nonzero;"/>
    </g>
    <g transform="matrix(0.56255,0.00112699,-0.00112699,0.56255,-62.8969,-65.205)">
        <path d="M1105.41,317.701C1114,317.356 1121.29,323.91 1121.86,332.479C1122.43,341.049 1116.08,348.515 1107.52,349.313C1101.79,349.849 1096.21,347.229 1092.96,342.471C1089.71,337.713 1089.3,331.566 1091.89,326.418C1094.48,321.271 1099.66,317.933 1105.41,317.701Z" style="fill:rgb(29,205,227);fill-rule:nonzero;"/>
    </g>
    <g transform="matrix(0.56255,0.00112699,-0.00112699,0.56255,-62.8969,-65.205)">
        <path d="M1862.5,976.665C1870.61,974.17 1879.2,978.73 1881.67,986.842C1884.15,994.953 1879.57,1003.53 1871.45,1005.99C1863.36,1008.44 1854.82,1003.88 1852.35,995.792C1849.88,987.707 1854.42,979.151 1862.5,976.665Z" style="fill:rgb(254,233,35);fill-rule:nonzero;"/>
    </g>
    <g transform="matrix(0.56255,0.00112699,-0.00112699,0.56255,-62.8969,-65.205)">
        <path d="M1575.56,448.717C1580.2,452.099 1643.82,544.939 1647.31,551.404C1648.67,553.924 1647.8,554.824 1646.99,557.39C1645.44,558.087 1644.59,558.27 1642.89,558.178C1631.15,546.188 1583.07,465.617 1575.56,448.717Z" style="fill:rgb(252,203,16);fill-rule:nonzero;"/>
    </g>
    <g transform="matrix(0.56255,0.00112699,-0.00112699,0.56255,-62.8969,-65.205)">
        <path d="M1755.15,1342.57C1763.03,1340.38 1771.23,1344.81 1773.72,1352.6C1776.21,1360.39 1772.11,1368.76 1764.43,1371.55C1759.18,1373.46 1753.31,1372.35 1749.13,1368.65C1744.95,1364.95 1743.12,1359.25 1744.38,1353.81C1745.64,1348.37 1749.77,1344.06 1755.15,1342.57Z" style="fill:rgb(29,205,227);fill-rule:nonzero;"/>
    </g>
    <g transform="matrix(0.56255,0.00112699,-0.00112699,0.56255,-62.8969,-65.205)">
        <path d="M241.42,1217.51C249.35,1215.76 257.229,1220.65 259.18,1228.53C261.132,1236.41 256.445,1244.42 248.615,1246.57C243.369,1248.01 237.754,1246.49 233.948,1242.61C230.142,1238.72 228.744,1233.07 230.297,1227.86C231.849,1222.64 236.108,1218.68 241.42,1217.51Z" style="fill:rgb(252,203,16);fill-rule:nonzero;"/>
    </g>
    <g transform="matrix(0.56255,0.00112699,-0.00112699,0.56255,-62.8969,-65.205)">
        <path d="M1666.14,428.48C1673.62,425.748 1681.9,429.483 1684.81,436.892C1687.72,444.3 1684.18,452.674 1676.84,455.753C1671.94,457.809 1666.3,457.049 1662.12,453.766C1657.94,450.483 1655.87,445.192 1656.7,439.942C1657.54,434.691 1661.15,430.305 1666.14,428.48Z" style="fill:rgb(233,34,174);fill-rule:nonzero;"/>
    </g>
    <g transform="matrix(0.56255,0.00112699,-0.00112699,0.56255,-62.8969,-65.205)">
        <path d="M1604.99,1571.8C1611.97,1568.97 1619.93,1572.3 1622.82,1579.25C1625.71,1586.21 1622.46,1594.19 1615.53,1597.15C1608.51,1600.14 1600.4,1596.83 1597.47,1589.79C1594.54,1582.74 1597.92,1574.66 1604.99,1571.8Z" style="fill:rgb(252,203,16);fill-rule:nonzero;"/>
    </g>
    <g transform="matrix(0.56255,0.00112699,-0.00112699,0.56255,-62.8969,-65.205)">
        <path d="M306.107,1303.26C304.985,1300.48 305.4,1297.45 306.588,1294.72C307.54,1292.54 309.008,1291.32 310.854,1289.93C312.331,1289.82 312.96,1289.35 314.126,1290.48C318.174,1294.39 317.73,1303.67 317.833,1308.99C317.228,1311.34 317.465,1314.79 317.353,1317.27C315.956,1319.38 314.534,1321.77 312.683,1323.51C310.473,1325.59 306.802,1326.91 303.767,1326.53C300.311,1326.11 297.416,1324.7 295.601,1321.6C294.064,1318.98 294.085,1315.58 295.03,1312.75C296.867,1307.27 301.29,1305.55 306.107,1303.26Z" style="fill:rgb(252,203,16);fill-rule:nonzero;"/>
    </g>
    <g transform="matrix(0.56255,0.00112699,-0.00112699,0.56255,-62.8969,-65.205)">
        <path d="M643.646,513.573C648.048,511.939 652.993,512.86 656.513,515.968C660.033,519.076 661.558,523.868 660.483,528.439C659.407,533.01 655.904,536.619 651.367,537.831C644.794,539.587 638,535.869 635.936,529.385C633.872,522.901 637.266,515.94 643.646,513.573Z" style="fill:rgb(252,203,16);fill-rule:nonzero;"/>
    </g>
    <g transform="matrix(0.56255,0.00112699,-0.00112699,0.56255,-62.8969,-65.205)">
        <path d="M701.354,387.626C707.531,385.238 714.474,388.312 716.858,394.491C719.242,400.669 716.164,407.611 709.985,409.991C703.81,412.37 696.875,409.295 694.493,403.122C692.11,396.948 695.181,390.012 701.354,387.626Z" style="fill:rgb(252,203,16);fill-rule:nonzero;"/>
    </g>
    <g transform="matrix(0.56255,0.00112699,-0.00112699,0.56255,-62.8969,-65.205)">
        <path d="M1293.38,1703.61C1299.23,1702.34 1305.06,1705.86 1306.67,1711.63C1308.28,1717.4 1305.11,1723.42 1299.44,1725.37C1295.47,1726.73 1291.07,1725.77 1288.02,1722.9C1284.97,1720.02 1283.76,1715.68 1284.88,1711.64C1286.01,1707.59 1289.28,1704.5 1293.38,1703.61Z" style="fill:rgb(252,203,16);fill-rule:nonzero;"/>
    </g>
    <g transform="matrix(0.56255,0.00112699,-0.00112699,0.56255,-62.8969,-65.205)">
        <path d="M171.315,902.47C176.758,901.184 182.222,904.522 183.563,909.951C184.905,915.381 181.624,920.879 176.208,922.276C172.655,923.193 168.883,922.131 166.33,919.495C163.777,916.858 162.837,913.054 163.869,909.532C164.9,906.01 167.743,903.313 171.315,902.47Z" style="fill:rgb(57,250,250);fill-rule:nonzero;"/>
    </g>
    <g transform="matrix(0.56255,0.00112699,-0.00112699,0.56255,-62.8969,-65.205)">
        <path d="M277.655,1117.75C280.581,1116.42 284.003,1116.78 286.582,1118.7C289.161,1120.63 290.487,1123.8 290.041,1126.99C289.596,1130.17 287.449,1132.86 284.442,1134.01C279.997,1135.69 275.016,1133.55 273.184,1129.16C271.352,1124.78 273.331,1119.73 277.655,1117.75Z" style="fill:rgb(29,205,227);fill-rule:nonzero;"/>
    </g>
    <g transform="matrix(0.56255,0.00112699,-0.00112699,0.56255,-62.8969,-65.205)">
        <path d="M322.495,1141.15C327.485,1141.02 331.997,1141.04 336.733,1142.86C339.004,1143.73 341.106,1144.32 342.133,1146.56L339.777,1146.89C333.264,1145.76 325.421,1147.89 319.531,1145.84L319.485,1144.19L322.495,1141.15Z" style="fill:rgb(20,171,187);fill-rule:nonzero;"/>
    </g>
    <g transform="matrix(0.56255,0.00112699,-0.00112699,0.56255,-62.8969,-65.205)">
        <path d="M282.716,901.456C284.361,900.346 286.487,900.243 288.232,901.187C289.977,902.132 291.053,903.968 291.023,905.952C290.993,907.937 289.863,909.74 288.09,910.632C285.579,911.895 282.519,910.99 281.099,908.565C279.678,906.139 280.386,903.028 282.716,901.456Z" style="fill:rgb(57,250,250);fill-rule:nonzero;"/>
    </g>
    <defs>
        <linearGradient id="_Linear1" x1="0" y1="0" x2="1" y2="0" gradientUnits="userSpaceOnUse" gradientTransform="matrix(486.458,-954.276,954.276,486.458,998.472,1402.34)"><stop offset="0" style="stop-color:rgb(6,4,51);stop-opacity:1"/><stop offset="1" style="stop-color:rgb(3,0,81);stop-opacity:1"/></linearGradient>
        <linearGradient id="_Linear2" x1="0" y1="0" x2="1" y2="0" gradientUnits="userSpaceOnUse" gradientTransform="matrix(-151.2,553.446,-553.446,-151.2,1417.91,455.474)"><stop offset="0" style="stop-color:rgb(255,125,2);stop-opacity:1"/><stop offset="1" style="stop-color:rgb(254,226,17);stop-opacity:1"/></linearGradient>
        <linearGradient id="_Linear3" x1="0" y1="0" x2="1" y2="0" gradientUnits="userSpaceOnUse" gradientTransform="matrix(-5.107,-19.922,19.922,-5.107,1002.81,686.511)"><stop offset="0" style="stop-color:rgb(230,78,9);stop-opacity:1"/><stop offset="1" style="stop-color:rgb(199,54,17);stop-opacity:1"/></linearGradient>
        <linearGradient id="_Linear4" x1="0" y1="0" x2="1" y2="0" gradientUnits="userSpaceOnUse" gradientTransform="matrix(-122.14,-114.06,114.06,-122.14,1456.13,1358.65)"><stop offset="0" style="stop-color:rgb(27,177,194);stop-opacity:1"/><stop offset="1" style="stop-color:rgb(47,233,230);stop-opacity:1"/></linearGradient>
        <linearGradient id="_Linear5" x1="0" y1="0" x2="1" y2="0" gradientUnits="userSpaceOnUse" gradientTransform="matrix(-36.35,-136.795,136.795,-36.35,516.47,1009.77)"><stop offset="0" style="stop-color:rgb(64,0,73);stop-opacity:1"/><stop offset="1" style="stop-color:rgb(236,47,75);stop-opacity:1"/></linearGradient>
    </defs>
</svg>
